<?xml version="1.0" encoding="UTF-8"?>
<svg id="Layer_1" data-name="Layer 1" xmlns="http://www.w3.org/2000/svg" viewBox="0 0 19.4 18.98">
  <defs>
    <style>
      .cls-1 {
        fill: none;
        stroke: #007dfc;
        stroke-miterlimit: 10;
      }
    </style>
  </defs>
  <g id="Group_101971" data-name="Group 101971">
    <path id="Path_41031" data-name="Path 41031" class="cls-1" d="M12.7,2.49h1c1.66,0,3,1.34,3,3v9c0,1.66-1.34,3-3,3H5.7c-1.66,0-3-1.34-3-3V5.49c0-1.66,1.34-3,3-3h1"/>
    <path id="Path_41041" data-name="Path 41041" class="cls-1" d="M11.7,3.49h-4c-.55,0-1-.45-1-1s.45-1,1-1h4c.55,0,1,.45,1,1s-.45,1-1,1Z"/>
    <line id="Line_12021" data-name="Line 12021" class="cls-1" x1="5.7" y1="7.49" x2="13.7" y2="7.49"/>
    <line id="Line_12031" data-name="Line 12031" class="cls-1" x1="5.7" y1="10.49" x2="11.7" y2="10.49"/>
    <line id="Line_12041" data-name="Line 12041" class="cls-1" x1="5.7" y1="13.49" x2="9.7" y2="13.49"/>
  </g>
</svg>