<?xml version="1.0" encoding="UTF-8"?>
<svg id="Layer_1" data-name="Layer 1" xmlns="http://www.w3.org/2000/svg" viewBox="0 0 23.75 23.55">
  <defs>
    <style>
      .cls-1 {
        fill: #555b6d;
        fill-rule: evenodd;
      }
    </style>
  </defs>
  <path id="Path_4567" data-name="Path 4567" class="cls-1" d="M18.37,20.27h-3.5c0,1.66-1.34,3-3,3s-3-1.34-3-3h-3.5c-1.93,0-3.5-1.57-3.5-3.5s1.57-3.5,3.5-3.5h1.5v2h-1.5c-.83,0-1.5.67-1.5,1.5s.67,1.5,1.5,1.5h13c.83,0,1.5-.67,1.5-1.5s-.67-1.5-1.5-1.5h-1.5v-2h1.5c1.93,0,3.5,1.57,3.5,3.5s-1.57,3.5-3.5,3.5ZM11.87,19.27c-.55,0-1,.45-1,1s.45,1,1,1,1-.45,1-1-.45-1-1-1ZM16.87,12.27h0v-2c0-2.76-2.24-5-5-5s-5,2.24-5,5v3h-2v-3c0-2.74,1.6-5.22,4.09-6.35-.06-.21-.09-.43-.09-.65,0-1.66,1.34-3,3-3s3,1.34,3,3c0,.22-.04.44-.1.65,2.49,1.13,4.1,3.61,4.1,6.35v3h-2v-1ZM11.87,2.27c-.55,0-1,.45-1,1s.45,1,1,1,1-.45,1-1-.45-1-1-1Z"/>
</svg>