<?xml version="1.0" encoding="UTF-8"?>
<svg id="Layer_1" data-name="Layer 1" xmlns="http://www.w3.org/2000/svg" xmlns:xlink="http://www.w3.org/1999/xlink" viewBox="0 0 64.01 60.23">
  <defs>
    <style>
      .cls-1 {
        stroke: #e99230;
        stroke-linecap: round;
        stroke-linejoin: round;
        stroke-width: 2px;
      }

      .cls-1, .cls-2 {
        fill: none;
      }

      .cls-3 {
        fill: #fff;
      }

      .cls-4 {
        opacity: .2;
      }

      .cls-5 {
        clip-path: url(#clippath-1);
      }

      .cls-6 {
        clip-path: url(#clippath);
      }

      .cls-7 {
        fill: #e99230;
      }
    </style>
    <clipPath id="clippath">
      <rect class="cls-2" x="1.36" y="3.62" width="61.29" height="52.99"/>
    </clipPath>
    <clipPath id="clippath-1">
      <rect class="cls-2" x="19.04" y="7.37" width="42.49" height="46.25"/>
    </clipPath>
  </defs>
  <rect class="cls-2" x="1.36" y="3.62" width="61.29" height="52.99"/>
  <g id="Group_10357" data-name="Group 10357">
    <g class="cls-6">
      <g id="Group_10356" data-name="Group 10356">
        <g id="Group_10355" data-name="Group 10355" class="cls-4">
          <g id="Group_10354" data-name="Group 10354">
            <g class="cls-5">
              <g id="Group_10353" data-name="Group 10353">
                <path id="Path_4588" data-name="Path 4588" class="cls-7" d="M61.53,29.08c0,13.55-10.98,24.53-24.53,24.54-2.13,0-4.25-.27-6.31-.83-11.53-7.11-15.12-22.23-8.01-33.76,4.47-7.24,12.37-11.66,20.88-11.66,2.11,0,4.22.27,6.26.82,7.26,4.46,11.69,12.37,11.7,20.89"/>
              </g>
            </g>
          </g>
        </g>
      </g>
    </g>
  </g>
  <path id="Path_4589" data-name="Path 4589" class="cls-1" d="M36.37,14.44v14.95l6.31,10.18"/>
  <g id="Group_10358" data-name="Group 10358">
    <path id="Path_4590" data-name="Path 4590" class="cls-1" d="M61.53,29.08c0,13.55-10.98,24.53-24.52,24.54-4.04,0-8.02-1-11.58-2.9-11.94-6.39-16.44-21.26-10.05-33.2S36.63,1.07,48.58,7.47c7.97,4.27,12.95,12.57,12.95,21.61h0Z"/>
    <line id="Line_1301" data-name="Line 1301" class="cls-1" x1="36.37" y1="4.99" x2="36.37" y2="7.8"/>
    <path id="Path_4591" data-name="Path 4591" class="cls-7" d="M62.65,43.47c0,7.26-5.88,13.14-13.14,13.14-7.26,0-13.14-5.88-13.14-13.14,0-7.26,5.88-13.14,13.14-13.14h0c7.26,0,13.14,5.88,13.14,13.14"/>
    <line id="Line_1302" data-name="Line 1302" class="cls-1" x1="36.37" y1="50.04" x2="36.37" y2="52.86"/>
    <line id="Line_1303" data-name="Line 1303" class="cls-1" x1="60.77" y1="29.39" x2="57.96" y2="29.39"/>
    <line id="Line_1304" data-name="Line 1304" class="cls-1" x1="15.72" y1="29.39" x2="12.9" y2="29.39"/>
    <line id="Line_1305" data-name="Line 1305" class="cls-1" x1="9.15" y1="35.96" x2="6.33" y2="35.96"/>
    <line id="Line_1306" data-name="Line 1306" class="cls-1" x1="11.1" y1="41.59" x2="2.29" y2="41.59"/>
    <line id="Line_1307" data-name="Line 1307" class="cls-1" x1="15.68" y1="47.22" x2="8.21" y2="47.22"/>
    <path id="Path_4592" data-name="Path 4592" class="cls-3" d="M51.94,41.54v-3.02c0-1.17-.95-2.12-2.12-2.12h-.08l-2.94,6.36v7.78h8.29c.71.02,1.34-.48,1.47-1.18l1.01-6.23c.1-.77-.43-1.47-1.2-1.57,0,0-.02,0-.03,0-.08-.01-.16-.02-.24-.02h-4.16s0,0,0,0Z"/>
    <path id="Path_4593" data-name="Path 4593" class="cls-3" d="M46.15,50.54h-1.93c-.74-.04-1.31-.66-1.29-1.4v-4.91c-.03-.74.55-1.36,1.29-1.4h1.93v7.71h0Z"/>
  </g>
</svg>