<?xml version="1.0" encoding="UTF-8"?>
<svg id="Layer_1" data-name="Layer 1" xmlns="http://www.w3.org/2000/svg" xmlns:xlink="http://www.w3.org/1999/xlink" viewBox="0 0 64.01 60.23">
  <defs>
    <style>
      .cls-1 {
        fill: #fff;
      }

      .cls-2, .cls-3, .cls-4, .cls-5 {
        fill: none;
      }

      .cls-3, .cls-4 {
        stroke-linecap: round;
      }

      .cls-3, .cls-4, .cls-5 {
        stroke-miterlimit: 10;
        stroke-width: 2px;
      }

      .cls-3, .cls-5 {
        stroke: #ff8f6c;
      }

      .cls-4 {
        stroke: #fff;
      }

      .cls-6 {
        opacity: .17;
      }

      .cls-7 {
        fill: #ff8f6c;
      }

      .cls-8 {
        clip-path: url(#clippath);
      }
    </style>
    <clipPath id="clippath">
      <rect class="cls-2" x="8.5" y="7.11" width="50" height="42"/>
    </clipPath>
  </defs>
  <rect class="cls-2" x="1.5" y="3.11" width="61" height="54"/>
  <g id="Group_103701" data-name="Group 103701">
    <path id="Path_45941" data-name="Path 45941" class="cls-7" d="M62.5,43.97c0,7.26-5.88,13.14-13.14,13.14s-13.14-5.88-13.14-13.14,5.88-13.14,13.14-13.14h0c7.26,0,13.14,5.88,13.14,13.14"/>
    <path id="Path_45951" data-name="Path 45951" class="cls-5" d="M58.75,13v28.16c0,4.67-3.78,8.45-8.45,8.45H10.88c-.24,0-.46,0-.68-.03-4.38-.36-7.76-4.02-7.76-8.42V13c0-4.67,3.78-8.45,8.45-8.45h39.42c4.66,0,8.44,3.78,8.45,8.45h0Z"/>
    <g id="Group_103691" data-name="Group 103691" class="cls-6">
      <g id="Group_103681" data-name="Group 103681">
        <g class="cls-8">
          <g id="Group_10367-21" data-name="Group 10367-21">
            <path id="Path_45961" data-name="Path 45961" class="cls-7" d="M58.75,13v28.16c0,4.67-3.78,8.45-8.45,8.45H10.88c-.24,0-.46,0-.68-.03-1.38-1.54-2.13-3.54-2.13-5.6V15.81c0-4.67,3.78-8.45,8.45-8.45h39.42c.24,0,.46,0,.68.03,1.38,1.54,2.13,3.54,2.13,5.6"/>
          </g>
        </g>
      </g>
    </g>
    <rect id="Rectangle_43151" data-name="Rectangle 43151" class="cls-5" x="25.5" y="49.11" width="10" height="7"/>
    <line id="Line_13081" data-name="Line 13081" class="cls-3" x1="21.5" y1="56.11" x2="39.5" y2="56.11"/>
    <path id="Path_45971" data-name="Path 45971" class="cls-7" d="M18.05,33.35c0,1.72-1.4,3.11-3.12,3.11s-3.12-1.39-3.12-3.11,1.4-3.11,3.12-3.11h0c1.72,0,3.12,1.39,3.12,3.11"/>
    <path id="Path_45981" data-name="Path 45981" class="cls-7" d="M30.51,20.89c0,1.72-1.4,3.11-3.12,3.11s-3.12-1.39-3.12-3.11,1.4-3.11,3.12-3.11h0c1.72,0,3.12,1.39,3.12,3.11"/>
    <path id="Path_45991" data-name="Path 45991" class="cls-7" d="M38.3,29.46c0,1.72-1.4,3.11-3.12,3.11s-3.12-1.39-3.12-3.11,1.4-3.11,3.12-3.11,3.12,1.39,3.12,3.11h0"/>
    <path id="Path_46001" data-name="Path 46001" class="cls-7" d="M48.42,19.33c0,1.72-1.4,3.11-3.12,3.11s-3.12-1.39-3.12-3.11,1.4-3.11,3.12-3.11,3.12,1.39,3.12,3.11h0"/>
    <path id="Path_46011" data-name="Path 46011" class="cls-5" d="M14.93,33.35l12.46-12.46,8.13,8.57,10.21-10.12"/>
    <line id="Line_13091" data-name="Line 13091" class="cls-4" x1="51.91" y1="46.64" x2="54.14" y2="48.65"/>
    <path id="Path_46021" data-name="Path 46021" class="cls-1" d="M48.28,36.8c-3.25,0-5.88,2.63-5.88,5.88s2.63,5.88,5.88,5.88c3.25,0,5.88-2.63,5.88-5.88h0c0-3.25-2.63-5.88-5.87-5.89h0"/>
    <path id="Path_46031" data-name="Path 46031" class="cls-7" d="M52,42.06c0-1.78-1.44-3.22-3.21-3.22-.25,0-.5.03-.74.09-.1.02-.18.11-.18.22,0,.11.07.2.17.23.76.22,1.45.65,2,1.23.7.82,1.13,1.84,1.22,2.92.01.13.12.23.25.21.1,0,.18-.08.21-.18l.23-.89v-.02c.04-.2.06-.4.06-.6"/>
  </g>
</svg>